<svg width="253" height="253" viewBox="0 0 253 253" fill="none" xmlns="http://www.w3.org/2000/svg">
<path d="M127 61.3125C91 61.3125 62.3125 90.5625 62.3125 126C62.3125 162 91 190.688 127 190.688C162.438 190.688 191.688 162 191.688 126C191.688 90.5625 162.438 61.3125 127 61.3125ZM127 168.188C103.938 168.188 84.8125 149.625 84.8125 126C84.8125 102.938 103.375 84.375 127 84.375C150.062 84.375 168.625 102.938 168.625 126C168.625 149.625 150.062 168.188 127 168.188ZM209.125 59.0625C209.125 50.625 202.375 43.875 193.938 43.875C185.5 43.875 178.75 50.625 178.75 59.0625C178.75 67.5 185.5 74.25 193.938 74.25C202.375 74.25 209.125 67.5 209.125 59.0625ZM251.875 74.25C250.75 54 246.25 36 231.625 21.375C217 6.75 199 2.25 178.75 1.125C157.938 0 95.5 0 74.6875 1.125C54.4375 2.25 37 6.75 21.8125 21.375C7.1875 36 2.6875 54 1.5625 74.25C0.4375 95.0625 0.4375 157.5 1.5625 178.312C2.6875 198.562 7.1875 216 21.8125 231.188C37 245.812 54.4375 250.312 74.6875 251.438C95.5 252.562 157.938 252.562 178.75 251.438C199 250.312 217 245.812 231.625 231.188C246.25 216 250.75 198.562 251.875 178.312C253 157.5 253 95.0625 251.875 74.25ZM224.875 200.25C220.938 211.5 211.938 219.938 201.25 224.438C184.375 231.188 145 229.5 127 229.5C108.438 229.5 69.0625 231.188 52.75 224.438C41.5 219.938 33.0625 211.5 28.5625 200.25C21.8125 183.938 23.5 144.562 23.5 126C23.5 108 21.8125 68.625 28.5625 51.75C33.0625 41.0625 41.5 32.625 52.75 28.125C69.0625 21.375 108.438 23.0625 127 23.0625C145 23.0625 184.375 21.375 201.25 28.125C211.938 32.0625 220.375 41.0625 224.875 51.75C231.625 68.625 229.938 108 229.938 126C229.938 144.562 231.625 183.938 224.875 200.25Z" fill="url(#paint0_radial_143_47)"/>
<defs>
<radialGradient id="paint0_radial_143_47" cx="0" cy="0" r="1" gradientUnits="userSpaceOnUse" gradientTransform="translate(219.5 17.5) rotate(132.731) scale(294.741 774.28)">
<stop stop-color="#833AB4"/>
<stop offset="0.520833" stop-color="#FD1D1D"/>
<stop offset="1" stop-color="#FCB045"/>
</radialGradient>
</defs>
</svg>
